<svg width="28" height="10" viewBox="0 0 28 10" fill="none" xmlns="http://www.w3.org/2000/svg">
<g clip-path="url(#clip0_137_10)">
<path d="M2.44229 0.272461V8.99973H0.861328V0.272461H2.44229ZM4.15429 8.99973V0.272461H7.42702C8.09748 0.272461 8.65998 0.397461 9.11452 0.647461C9.57191 0.897461 9.91708 1.24121 10.15 1.67871C10.3858 2.11337 10.5037 2.60768 10.5037 3.16166C10.5037 3.72132 10.3858 4.21848 10.15 4.65314C9.91424 5.0878 9.56623 5.43013 9.106 5.68013C8.64577 5.92729 8.07901 6.05087 7.40571 6.05087H5.23668V4.75115H7.19265C7.58469 4.75115 7.90571 4.68297 8.15571 4.54661C8.40571 4.41024 8.59037 4.22274 8.70969 3.98411C8.83185 3.74547 8.89293 3.47132 8.89293 3.16166C8.89293 2.852 8.83185 2.57928 8.70969 2.34348C8.59037 2.10768 8.40429 1.92445 8.15145 1.79376C7.90145 1.66024 7.57901 1.59348 7.18412 1.59348H5.73526V8.99973H4.15429ZM17.3783 0.272461H18.9593V5.97416C18.9593 6.59916 18.8116 7.14888 18.5161 7.62331C18.2235 8.09774 17.8116 8.46848 17.2803 8.73553C16.7491 8.99973 16.1283 9.13183 15.4181 9.13183C14.705 9.13183 14.0829 8.99973 13.5516 8.73553C13.0204 8.46848 12.6085 8.09774 12.3158 7.62331C12.0232 7.14888 11.8769 6.59916 11.8769 5.97416V0.272461H13.4579V5.84206C13.4579 6.2057 13.5374 6.52956 13.6965 6.81365C13.8585 7.09774 14.0857 7.32075 14.3783 7.48268C14.671 7.64178 15.0175 7.72132 15.4181 7.72132C15.8187 7.72132 16.1653 7.64178 16.4579 7.48268C16.7533 7.32075 16.9806 7.09774 17.1397 6.81365C17.2988 6.52956 17.3783 6.2057 17.3783 5.84206V0.272461ZM27.8496 0.272461V8.99973H26.4433L22.3311 3.05513H22.2587V8.99973H20.6777V0.272461H22.0925L26.2004 6.22132H26.2771V0.272461H27.8496Z" fill="white"/>
</g>
<defs>
<clipPath id="clip0_137_10">
<rect width="28" height="10" fill="white"/>
</clipPath>
</defs>
</svg>
