<svg width="28" height="10" viewBox="0 0 28 10" fill="none" xmlns="http://www.w3.org/2000/svg">
<path d="M2.44176 0.272727V9H0.860795V0.272727H2.44176ZM4.15376 9V0.272727H7.42649C8.09695 0.272727 8.65945 0.397727 9.11399 0.647727C9.57138 0.897727 9.91655 1.24148 10.1495 1.67898C10.3853 2.11364 10.5032 2.60795 10.5032 3.16193C10.5032 3.72159 10.3853 4.21875 10.1495 4.65341C9.91371 5.08807 9.5657 5.4304 9.10547 5.6804C8.64524 5.92756 8.07848 6.05114 7.40518 6.05114H5.23615V4.75142H7.19212C7.58416 4.75142 7.90518 4.68324 8.15518 4.54688C8.40518 4.41051 8.58984 4.22301 8.70916 3.98438C8.83132 3.74574 8.8924 3.47159 8.8924 3.16193C8.8924 2.85227 8.83132 2.57955 8.70916 2.34375C8.58984 2.10795 8.40376 1.92472 8.15092 1.79403C7.90092 1.66051 7.57848 1.59375 7.18359 1.59375H5.73473V9H4.15376ZM17.3778 0.272727H18.9588V5.97443C18.9588 6.59943 18.8111 7.14915 18.5156 7.62358C18.223 8.09801 17.8111 8.46875 17.2798 8.7358C16.7486 9 16.1278 9.1321 15.4176 9.1321C14.7045 9.1321 14.0824 9 13.5511 8.7358C13.0199 8.46875 12.608 8.09801 12.3153 7.62358C12.0227 7.14915 11.8764 6.59943 11.8764 5.97443V0.272727H13.4574V5.84233C13.4574 6.20597 13.5369 6.52983 13.696 6.81392C13.858 7.09801 14.0852 7.32102 14.3778 7.48295C14.6705 7.64205 15.017 7.72159 15.4176 7.72159C15.8182 7.72159 16.1648 7.64205 16.4574 7.48295C16.7528 7.32102 16.9801 7.09801 17.1392 6.81392C17.2983 6.52983 17.3778 6.20597 17.3778 5.84233V0.272727ZM27.8491 0.272727V9H26.4428L22.3306 3.0554H22.2582V9H20.6772V0.272727H22.092L26.1999 6.22159H26.2766V0.272727H27.8491Z" fill="black"/>
</svg>
